#!OML:ASF I:\Actors\actors\Patient Classification 2\Patient 1\Session 1\actor1.ASF
:FULLY-SPECIFIED
:DEGREES
210
root -0.548409 18.7377 5.7499 4.03031 -2.93845 -2.27847
lowerback 2.25641 0.552049 -0.646584
upperback -0.499571 0.696253 -1.20317
thorax -1.76943 0.348035 -0.896763
lowerneck -13.4562 -2.39592 -2.40515
upperneck 32.8265 -4.05275 3.45347
head 13.4164 -1.63321 1.15797
rclavicle 1.36167e-014 1.59028e-015
rhumerus -20.7377 32.3817 -91.0097
rradius 89.5902
rwrist 11.7002
rhand -10.9838 -62.7437
rfingers 7.12502
rthumb 15.0361 -267.822
lclavicle 1.36167e-014 1.59028e-015
lhumerus -9.3589 -31.137 85.7535
lradius 75.2159
lwrist -6.79712
lhand 13.6002 -28.8287
lfingers 7.12502
lthumb 38.5324 -3.17638
rfemur 0 0 0
rtibia 0
rfoot 0 0
rtoes 0
lfemur -6.63843 -6.12481 -12.4633
ltibia 22.4942
lfoot -24.4519 15.7532
ltoes -53.9331
211
root -0.54775 18.7375 5.74769 4.02275 -2.94014 -2.32618
lowerback 2.19616 0.553471 -0.647501
upperback -0.504404 0.698228 -1.24384
thorax -1.74007 0.348821 -0.937366
lowerneck -13.3025 -2.38535 -2.38691
upperneck 32.7747 -4.05972 3.50467
head 13.3616 -1.62999 1.17495
rclavicle -6.31141e-015 8.74653e-015
rhumerus -19.287 32.5286 -90.0723
rradius 89.4353
rwrist 11.067
rhand -10.7065 -62.7244
rfingers 7.12502
rthumb 15.3032 -267.862
lclavicle -6.31141e-015 8.74653e-015
lhumerus -9.37246 -31.1803 85.7561
lradius 75.199
lwrist -6.74039
lhand 13.6538 -28.6797
lfingers 7.12502
lthumb 38.583 -3.04145
rfemur 0 0 0
rtibia 0
rfoot 0 0
rtoes 0
lfemur -6.70539 -6.18445 -12.4164
ltibia 22.6478
lfoot -24.5801 15.7414
ltoes -53.8834
212
root -0.539472 18.7352 5.7438 3.96358 -2.9411 -2.59618
lowerback 2.23684 0.570833 -0.270806
upperback -0.512503 0.730869 -1.28884
thorax -1.76554 0.36094 -1.19646
lowerneck -13.1144 -2.3894 -2.28698
upperneck 32.7535 -4.10802 3.54195
head 13.312 -1.6369 1.16643
rclavicle -1.11816e-014 5.56597e-015
rhumerus -17.8442 32.6594 -89.118
rradius 89.2213
rwrist 10.5562
rhand -10.3893 -62.7243
rfingers 7.12502
rthumb 15.6087 -267.885
lclavicle -1.11816e-014 5.56597e-015
lhumerus -9.41566 -31.2979 85.7297
lradius 75.2327
lwrist -6.66032
lhand 13.784 -28.5437
lfingers 7.12502
lthumb 38.7059 -2.94003
rfemur 0 0 0
rtibia 0
rfoot 0 0
rtoes 0
lfemur -6.71849 -6.04774 -12.1531
ltibia 22.7992
lfoot -24.5071 15.7576
ltoes -54.0553
213
root -0.51683 18.7305 5.73278 3.77795 -2.78917 -3.16801
lowerback 2.56188 0.538432 0.667079
upperback -0.493887 0.714926 -1.30556
thorax -1.91769 0.342132 -1.74318
lowerneck -13.0129 -2.37199 -2.17
upperneck 32.7289 -4.12938 3.58583
head 13.2786 -1.62776 1.16078
rclavicle -6.31141e-015 6.36111e-015
rhumerus -16.3789 32.8074 -88.1521
rradius 88.9393
rwrist 10.2385
rhand -9.61601 -62.8854
rfingers 7.12502
rthumb 16.3534 -267.784
lclavicle -6.31141e-015 6.36111e-015
lhumerus -9.38708 -31.3849 85.6988
lradius 75.244
lwrist -6.66563
lhand 13.8748 -28.5487
lfingers 7.12502
lthumb 38.7915 -2.96928
rfemur 0 0 0
rtibia 0
rfoot 0 0
rtoes 0
lfemur -6.5555 -5.87807 -11.597
ltibia 22.8358
lfoot -24.2612 15.7045
ltoes -54.0609
214
root -0.517506 18.731 5.72991 3.76908 -2.80472 -3.2059
lowerback 2.53511 0.580124 0.652509
upperback -0.486368 0.768641 -1.38335
thorax -1.89222 0.368909 -1.81671
lowerneck -12.9135 -2.35104 -2.047
upperneck 32.6273 -4.13218 3.59926
head 13.2109 -1.61426 1.14422
rclavicle -9.39258e-015 9.54166e-015
rhumerus -14.9016 32.947 -87.1615
rradius 88.6073
rwrist 9.9755
rhand -9.01588 -63.0754
rfingers 7.12502
rthumb 16.9312 -267.643
lclavicle -9.39258e-015 9.54166e-015
lhumerus -9.28575 -31.4893 85.6691
lradius 75.2456
lwrist -6.64838
lhand 13.937 -28.5332
lfingers 7.12502
lthumb 38.8501 -2.97037
rfemur 0 0 0
rtibia 0
rfoot 0 0
rtoes 0
lfemur -6.51715 -5.96587 -11.5438
ltibia 22.8161
lfoot -24.4277 15.5854
ltoes -54.0695
215
root -0.537375 18.7364 5.73363 3.98996 -3.01007 -2.48064
lowerback 1.95621 0.663516 -0.588797
upperback -0.444462 0.846295 -1.54099
thorax -1.53705 0.420955 -1.27652
lowerneck -12.8445 -2.35083 -1.96791
upperneck 32.5235 -4.13433 3.55654
head 13.1484 -1.61309 1.11309
rclavicle 1.31198e-014 -5.56597e-015
rhumerus -13.3999 33.1755 -86.0948
rradius 88.3244
rwrist 9.69699
rhand -9.70694 -63.0565
rfingers 7.12502
rthumb 16.2658 -267.606
lclavicle 1.31198e-014 -5.56597e-015
lhumerus -9.07191 -31.4845 85.5947
lradius 75.2865
lwrist -6.57795
lhand 14.0754 -28.4264
lfingers 7.12502
lthumb 38.9807 -2.90079
rfemur 0 0 0
rtibia 0
rfoot 0 0
rtoes 0
lfemur -6.71872 -6.10986 -12.2845
ltibia 22.7432
lfoot -24.632 15.7116
ltoes -53.8033
216
root -0.543121 18.7385 5.72986 4.0393 -3.05583 -2.2531
lowerback 1.39999 0.619962 -1.23033
upperback -0.170595 0.790553 -1.50536
thorax -0.954721 0.397539 -0.869155
lowerneck -12.9122 -2.29478 -1.9011
upperneck 32.3354 -4.01692 3.42467
head 13.0733 -1.57165 1.06514
rclavicle -2.88238e-015 7.95139e-015
rhumerus -11.6577 33.658 -84.8263
rradius 88.0906
rwrist 9.40113
rhand -10.5638 -62.5272
rfingers 7.12502
rthumb 15.4407 -268.07
lclavicle -2.88238e-015 7.95139e-015
lhumerus -8.58353 -31.162 85.392
lradius 75.3422
lwrist -6.52996
lhand 14.2561 -28.3189
lfingers 7.12502
lthumb 39.151 -2.84227
rfemur 0 0 0
rtibia 0
rfoot 0 0
rtoes 0
lfemur -6.73083 -6.17743 -12.5239
ltibia 22.5968
lfoot -24.5651 15.8818
ltoes -53.8522
217
root -0.543236 18.739 5.72429 4.01671 -2.94904 -2.29316
lowerback 1.74076 0.639432 -1.10481
upperback -0.383604 0.805011 -1.67544
thorax -1.35984 0.404168 -1.12043
lowerneck -12.5615 -2.29092 -1.88423
upperneck 32.3521 -4.09341 3.64878
head 13.0133 -1.57902 1.14188
rclavicle -9.93923e-017 0
rhumerus -11.1422 33.7191 -84.3966
rradius 88.0378
rwrist 9.32548
rhand -10.1353 -62.2838
rfingers 7.12502
rthumb 15.8534 -268.345
lclavicle -9.93923e-017 0
lhumerus -8.97653 -31.3139 85.4437
lradius 75.4819
lwrist -6.52903
lhand 13.9619 -28.3633
lfingers 7.12502
lthumb 38.8736 -2.80717
rfemur 0 0 0
rtibia 0
rfoot 0 0
rtoes 0
lfemur -6.67646 -6.28152 -12.4732
ltibia 22.4544
lfoot -24.4853 15.9038
ltoes -53.8376
218
root -0.54405 18.7388 5.72184 3.99584 -2.82444 -2.33034
lowerback 1.46189 0.563017 -1.29107
upperback -0.175322 0.710613 -1.64436
thorax -0.993762 0.357629 -0.976543
lowerneck -12.6146 -2.2201 -2.01039
upperneck 32.1825 -4.01184 3.84436
head 12.9579 -1.53411 1.24994
rclavicle 2.08724e-015 5.56597e-015
rhumerus -9.96256 34.1252 -83.4612
rradius 88.0818
rwrist 9.33247
rhand -8.48263 -62.9122
rfingers 7.12502
rthumb 17.4444 -267.851
lclavicle 2.08724e-015 5.56597e-015
lhumerus -8.64581 -31.0012 85.3073
lradius 75.4908
lwrist -6.55906
lhand 13.2181 -28.4769
lfingers 7.12502
lthumb 38.1718 -2.72467
rfemur 0 0 0
rtibia 0
rfoot 0 0
rtoes 0
lfemur -6.67335 -6.36485 -12.4216
ltibia 22.4309
lfoot -24.4479 15.8938
ltoes -53.8229
219
root -0.543794 18.7389 5.72009 3.98817 -2.66456 -2.29994
lowerback 1.4845 0.534424 -1.4164
upperback -0.184863 0.668547 -1.7285
thorax -1.017 0.337126 -0.991933
lowerneck -12.5088 -2.21503 -1.99148
upperneck 32.1666 -4.04937 3.96599
head 12.9329 -1.53444 1.28918
rclavicle 8.94531e-016 -1.27222e-014
rhumerus -9.50311 34.3124 -82.9773
rradius 88.2668
rwrist 9.62259
rhand -7.42223 -63.2534
rfingers 7.12502
rthumb 18.4647 -267.603
lclavicle 8.94531e-016 -1.27222e-014
lhumerus -8.63837 -30.9338 85.2867
lradius 75.515
lwrist -6.53972
lhand 12.8523 -28.4886
lfingers 7.12502
lthumb 37.8264 -2.64231
rfemur 0 0 0
rtibia 0
rfoot 0 0
rtoes 0
lfemur -6.71619 -6.44333 -12.4461
ltibia 22.4474
lfoot -24.426 15.8833
ltoes -53.8306
220
root -0.543155 18.7396 5.71794 3.99076 -2.43955 -2.24645
lowerback 1.97139 0.561946 -1.34034
upperback -0.506221 0.683208 -1.96879
thorax -1.61574 0.344434 -1.2897
lowerneck -12.1593 -2.26779 -1.89868
upperneck 32.34 -4.23005 4.17314
head 12.9423 -1.5796 1.3322
rclavicle -1.87852e-014 -1.59028e-015
rhumerus -9.87721 34.2144 -83.0783
rradius 88.5238
rwrist 10.0392
rhand -8.53885 -62.8796
rfingers 7.12502
rthumb 17.3903 -267.878
lclavicle -1.87852e-014 -1.59028e-015
lhumerus -9.11744 -31.2287 85.4203
lradius 75.5727
lwrist -6.50591
lhand 12.8617 -28.4282
lfingers 7.12502
lthumb 37.8352 -2.58431
rfemur 0 0 0
rtibia 0
rfoot 0 0
rtoes 0
lfemur -6.79415 -6.54646 -12.4872
ltibia 22.4703
lfoot -24.3875 15.8061
ltoes -53.8207
221
root -0.543939 18.7406 5.71525 4.01053 -2.18882 -2.26239
lowerback 2.16452 0.516046 -1.36804
upperback -0.613346 0.611611 -2.069
thorax -1.83427 0.308781 -1.37777
lowerneck -12.0711 -2.26048 -1.82318
upperneck 32.4355 -4.2535 4.20341
head 12.9639 -1.5772 1.3293
rclavicle -2.98177e-016 -1.11319e-014
rhumerus -9.95841 34.3429 -82.9858
rradius 88.8143
rwrist 10.3608
rhand -10.9192 -62.3681
rfingers 7.12502
rthumb 15.0983 -268.203
lclavicle -2.98177e-016 -1.11319e-014
lhumerus -9.20642 -31.2597 85.4424
lradius 75.5638
lwrist -6.53521
lhand 12.9118 -28.42
lfingers 7.12502
lthumb 37.8826 -2.58895
rfemur 0 0 0
rtibia 0
rfoot 0 0
rtoes 0
lfemur -6.90551 -6.60663 -12.4311
ltibia 22.5014
lfoot -24.2663 15.6861
ltoes -53.9311
222
root -0.546663 18.7419 5.71233 4.03899 -1.95256 -2.35682
lowerback 2.21022 0.448508 -1.38917
upperback -0.605254 0.519045 -2.11588
thorax -1.85271 0.26256 -1.41105
lowerneck -12.1141 -2.21937 -1.6688
upperneck 32.4232 -4.18585 4.06599
head 12.9577 -1.54577 1.25809
rclavicle 6.16232e-015 7.15625e-015
rhumerus -10.0372 34.5121 -82.9437
rradius 89.1732
rwrist 10.7415
rhand -12.2916 -62.0933
rfingers 7.12502
rthumb 13.776 -268.383
lclavicle 6.16232e-015 7.15625e-015
lhumerus -9.10111 -31.2208 85.3445
lradius 75.5466
lwrist -6.56927
lhand 12.8764 -28.4629
lfingers 7.12502
lthumb 37.8491 -2.62278
rfemur 0 0 0
rtibia 0
rfoot 0 0
rtoes 0
lfemur -7.0293 -6.59189 -12.2756
ltibia 22.535
lfoot -24.096 15.5619
ltoes -54.1475
223
root -0.549178 18.7422 5.71036 4.06246 -1.73743 -2.43658
lowerback 2.10298 0.369725 -1.49038
upperback -0.493676 0.416932 -2.13177
thorax -1.68006 0.212234 -1.3651
lowerneck -12.218 -2.16417 -1.50297
upperneck 32.3188 -4.10149 3.94356
head 12.9255 -1.50389 1.19163
rclavicle 1.92821e-014 6.36111e-015
rhumerus -10.1189 34.6626 -82.9461
rradius 89.6082
rwrist 11.33
rhand -11.7957 -62.2878
rfingers 7.12502
rthumb 14.2538 -268.221
lclavicle 1.92821e-014 6.36111e-015
lhumerus -8.86395 -31.0969 85.2012
lradius 75.5233
lwrist -6.58273
lhand 12.8579 -28.4137
lfingers 7.12502
lthumb 37.8316 -2.56891
rfemur 0 0 0
rtibia 0
rfoot 0 0
rtoes 0
lfemur -7.1589 -6.55532 -12.1566
ltibia 22.5698
lfoot -23.8219 15.5813
ltoes -54.5003
224
root -0.550128 18.7421 5.70844 4.10755 -1.48897 -2.46041
lowerback 1.69872 0.240519 -1.82426
upperback -0.197263 0.258844 -2.02985
thorax -1.15321 0.134463 -1.06404
lowerneck -12.5379 -2.11262 -1.47595
upperneck 32.224 -3.99798 3.85367
head 12.9473 -1.46301 1.16318
rclavicle -4.27387e-015 1.11319e-014
rhumerus -9.9773 34.9452 -82.7588
rradius 90.0213
rwrist 11.896
rhand -10.2635 -62.7608
rfingers 7.12502
rthumb 15.7299 -267.858
lclavicle -4.27387e-015 1.11319e-014
lhumerus -8.31573 -30.7249 85.0458
lradius 75.4583
lwrist -6.63135
lhand 13.0231 -28.3377
lfingers 7.12502
lthumb 37.9877 -2.53508
rfemur 0 0 0
rtibia 0
rfoot 0 0
rtoes 0
lfemur -7.31825 -6.58915 -12.1
ltibia 22.6019
lfoot -23.5775 15.5499
ltoes -54.4211
